<svg width="512" height="512" viewBox="0 0 512 512" fill="none" xmlns="http://www.w3.org/2000/svg">
<rect width="512" height="512" fill="url(#paint0_linear_1018_1912)"/>
<path d="M405.472 348.96C390.032 373.744 368.576 394.416 343.168 408.928C341.776 409.728 340.368 410.512 338.96 411.248C314.24 424.496 286 432 256 432C255.68 432 255.344 432 255.024 431.984V367.984C255.344 368 255.68 368 256 368C274.352 368 291.664 363.584 306.944 355.776C308.368 355.04 309.776 354.272 311.168 353.488C326.864 344.592 340.192 332.016 349.984 316.928L405.472 348.96Z" fill="white" fill-opacity="0.8"/>
<path d="M256.976 80.016V144.016C256.656 144 256.32 144 256 144C237.648 144 220.336 148.416 205.056 156.224C203.632 156.96 202.224 157.712 200.848 158.512C185.152 167.408 171.808 179.984 162.016 195.072C161.136 196.416 160.304 197.76 159.488 199.152C150.56 214.256 145.088 231.648 144.144 250.224C144.064 251.808 144.016 253.408 144.016 255.024C144 255.344 144 255.68 144 256C144 274.352 148.416 291.664 156.224 306.944C156.96 308.368 157.712 309.776 158.512 311.152C167.408 326.848 179.984 340.192 195.072 349.984C196.416 350.864 197.76 351.696 199.152 352.512C214.256 361.44 231.648 366.912 250.224 367.856V431.888C219.984 430.928 191.664 422.336 167.152 407.952C165.76 407.152 164.4 406.32 163.04 405.472C138.256 390.032 117.584 368.576 103.056 343.168L100.752 338.96C87.504 314.24 80 286 80 256C80 255.68 80 255.344 80.016 255.024L80.112 250.224C81.072 219.984 89.664 191.664 104.048 167.152C104.848 165.76 105.68 164.4 106.528 163.04C121.968 138.256 143.424 117.584 168.832 103.056C170.224 102.272 171.632 101.488 173.04 100.752C197.76 87.504 226 80 256 80C256.32 80 256.656 80 256.976 80.016Z" fill="white"/>
<path d="M408.944 168.832L353.488 200.848C344.592 185.152 332.016 171.808 316.928 162.016C315.584 161.136 314.24 160.304 312.848 159.488C297.744 150.56 280.352 145.088 261.776 144.144V80.1118C292.016 81.0718 320.336 89.6638 344.848 104.048C346.24 104.848 347.6 105.68 348.96 106.528C373.744 121.968 394.416 143.424 408.944 168.832Z" fill="white" fill-opacity="0.8"/>
<path d="M432 256C432 256.32 432 256.656 431.984 256.976C431.984 258.576 431.952 260.176 431.888 261.776C430.928 292.016 422.336 320.336 407.952 344.848L352.512 312.848C361.44 297.744 366.912 280.352 367.856 261.776C367.936 260.192 367.984 258.592 367.984 256.976C368 256.656 368 256.32 368 256C368 237.648 363.584 220.336 355.776 205.056L411.248 173.04C424.496 197.76 432 226 432 256Z" fill="white" fill-opacity="0.3"/>
<path d="M144.144 250.224C144.064 251.808 144.016 253.408 144.016 255.024L144.144 250.224Z" fill="#00FFFB"/>
<path d="M199.152 352.512C197.76 351.696 196.416 350.864 195.072 349.984L199.152 352.512Z" fill="#00FFFB"/>
<path d="M80.1116 250.224C80.0476 251.824 80.0156 253.424 80.0156 255.024L80.1116 250.224Z" fill="#557BFF"/>
<path d="M144.144 250.224C144.064 251.808 144.016 253.408 144.016 255.024L144.144 250.224Z" fill="#557BFF"/>
<path d="M103.056 343.168C102.272 341.776 101.488 340.368 100.752 338.96L103.056 343.168Z" fill="#557BFF"/>
<path d="M199.152 352.512C197.76 351.696 196.416 350.864 195.072 349.984L199.152 352.512Z" fill="#557BFF"/>
<defs>
<linearGradient id="paint0_linear_1018_1912" x1="256" y1="0" x2="256" y2="512" gradientUnits="userSpaceOnUse">
<stop stop-color="#579AFF"/>
<stop offset="1" stop-color="#0D47DC"/>
</linearGradient>
</defs>
</svg>
